<svg width="24" height="24" viewBox="0 0 24 24" fill="none" xmlns="http://www.w3.org/2000/svg">
<path d="M18.6562 12.0937C18.6273 11.2925 17.9576 10.6646 17.1562 10.6874C16.7947 10.7008 16.4503 10.8452 16.1874 11.0937C15.0534 10.3194 13.7167 9.89553 12.3437 9.87491L12.9999 6.74991L15.1249 7.18741C15.1745 7.67792 15.5742 8.05911 16.0665 8.08541C16.5588 8.11172 16.9968 7.77529 17.0984 7.29285C17.2 6.81041 16.9348 6.32593 16.4736 6.15151C16.0125 5.97709 15.4931 6.16477 15.2499 6.59366L12.8124 6.09366C12.7294 6.07532 12.6424 6.09161 12.5717 6.13879C12.5009 6.18597 12.4524 6.25995 12.4374 6.34366L11.6874 9.81241C10.295 9.83285 8.93822 10.2562 7.78117 11.0312C7.40378 10.6613 6.85593 10.5243 6.34889 10.6731C5.84184 10.8218 5.45482 11.2331 5.33704 11.7482C5.21927 12.2633 5.38915 12.8019 5.78117 13.1562C5.9047 13.2574 6.04136 13.3415 6.18742 13.4062V13.8437C6.18742 16.0937 8.81242 17.9062 12.0312 17.9062C15.2499 17.9062 17.8749 16.0937 17.8749 13.8437V13.4062C18.3572 13.146 18.6574 12.6417 18.6562 12.0937Z" fill="white"/>
<path d="M12 2C17.5228 2 22 6.47715 22 12C22 17.5228 17.5228 22 12 22C6.47715 22 2 17.5228 2 12C2 6.47715 6.47715 2 12 2ZM18.6562 12.0938C18.6274 11.2926 17.9576 10.6647 17.1562 10.6875C16.7947 10.7009 16.4504 10.8453 16.1875 11.0937C15.0534 10.3194 13.7168 9.89562 12.3438 9.875L13 6.75L15.125 7.1875C15.1746 7.67801 15.5743 8.0592 16.0666 8.0855C16.5589 8.1118 16.9969 7.77537 17.0985 7.29294C17.2 6.8105 16.9348 6.32602 16.4737 6.1516C16.0126 5.97718 15.4931 6.16486 15.25 6.59375L12.8125 6.09375C12.7295 6.07541 12.6425 6.0917 12.5718 6.13888C12.501 6.18605 12.4525 6.26004 12.4375 6.34375L11.6875 9.8125C10.295 9.83294 8.93829 10.2562 7.78125 11.0312C7.40385 10.6614 6.85601 10.5244 6.34897 10.6732C5.84192 10.8219 5.45489 11.2332 5.33712 11.7483C5.21934 12.2634 5.38922 12.8019 5.78125 13.1562C5.90478 13.2575 6.04143 13.3416 6.1875 13.4062V13.8438C6.1875 16.0937 8.8125 17.9062 12.0312 17.9062C15.25 17.9062 17.875 16.0937 17.875 13.8438V13.4062C18.3573 13.1461 18.6575 12.6418 18.6562 12.0938ZM8.65625 13.0937C8.65625 12.5415 9.10396 12.0938 9.65625 12.0938C10.2085 12.0938 10.6562 12.5415 10.6562 13.0937C10.6562 13.646 10.2085 14.0937 9.65625 14.0937C9.39001 14.0971 9.13368 13.9929 8.9454 13.8046C8.75712 13.6163 8.65286 13.36 8.65625 13.0937ZM14.4688 15.875C13.758 16.4015 12.8823 16.6564 12 16.5937C11.1126 16.6189 10.2427 16.3436 9.53125 15.8125C9.44565 15.6975 9.45905 15.5368 9.5625 15.4375C9.65758 15.3429 9.81117 15.3429 9.90625 15.4375C10.5135 15.8764 11.2515 16.0967 12 16.0625C12.7428 16.0882 13.475 15.8806 14.0938 15.4687C14.2107 15.3687 14.3831 15.3687 14.5 15.4687C14.625 15.5625 14.5625 15.7812 14.4688 15.875ZM13.2812 13.0937C13.2812 12.5415 13.729 12.0938 14.2812 12.0938C14.8335 12.0938 15.2813 12.5415 15.2813 13.0937C15.2813 13.646 14.8335 14.0937 14.2812 14.0937C14.015 14.0971 13.7587 13.9929 13.5704 13.8046C13.3821 13.6163 13.2779 13.36 13.2812 13.0937Z" fill="#FF4500"/>
</svg>
