<svg width="24" height="24" viewBox="0 0 24 24" fill="none" xmlns="http://www.w3.org/2000/svg">
<path d="M8.99345 18.5928C10.5656 18.5893 11.8403 17.3192 11.8472 15.7492V15.6242L15.2641 13.1869H15.358C16.8902 13.1907 18.2736 12.2719 18.8626 10.8593C19.4516 9.44673 19.13 7.81892 18.0479 6.73562C16.9658 5.65231 15.3366 5.32711 13.9206 5.91178C12.5047 6.49645 11.5812 7.87573 11.5812 9.40586V9.46835L9.18433 12.9369H9.02474C8.45385 12.9349 7.89636 13.1095 7.42892 13.4368L2.04068 11.2182C2.01565 11.5026 2 11.787 2 12.0776C1.99991 12.9724 2.1231 13.863 2.3661 14.7243L6.20546 16.3117C6.47664 17.6354 7.64047 18.5876 8.99345 18.5928ZM15.2954 6.93727C15.967 6.92201 16.6161 7.17936 17.0944 7.65048C17.5726 8.12161 17.8392 8.76626 17.8331 9.43711C17.8483 10.4669 17.2387 11.4038 16.2902 11.8082C15.3416 12.2126 14.2424 12.0043 13.5082 11.281C12.774 10.5577 12.5504 9.46295 12.9424 8.5103C13.3343 7.55765 14.264 6.93611 15.2954 6.93727ZM8.30506 17.1866C9.1178 17.4915 10.0272 17.1068 10.3734 16.3117C10.5361 15.9309 10.5381 15.5008 10.3791 15.1185C10.2201 14.7362 9.91346 14.4341 9.52852 14.2805L8.24248 13.7493C9.31918 13.3588 10.5132 13.8815 10.9554 14.9367C11.1777 15.4556 11.1777 16.0428 10.9554 16.5616C10.7393 17.0843 10.3241 17.4997 9.80125 17.7166C9.27836 17.9334 8.6906 17.9339 8.16738 17.7178C7.68011 17.5323 7.28632 17.1615 7.07221 16.6866L8.30506 17.1866ZM15.358 11.2807C14.3021 11.2807 13.4461 10.4413 13.4461 9.40586C13.4461 8.37039 14.3021 7.53098 15.358 7.53098C16.4139 7.53098 17.2698 8.37039 17.2698 9.40586C17.2698 10.4413 16.4139 11.2807 15.358 11.2807Z" fill="white"/>
<path d="M12.0041 2.00001C17.1763 2.00895 21.4906 5.95038 21.9587 11.0944C22.4268 16.2383 18.8947 20.8919 13.8088 21.8317C8.72289 22.7716 3.75714 19.6885 2.35093 14.7179L6.20594 16.3116C6.5198 17.7178 7.8363 18.6682 9.27188 18.5248C10.7075 18.3815 11.8094 17.1896 11.8382 15.7491V15.6241L15.2552 13.1868H15.3491C16.8821 13.1944 18.2684 12.278 18.8604 10.8657C19.4523 9.45349 19.133 7.82415 18.0517 6.7389C16.9704 5.65365 15.3404 5.32671 13.9233 5.91082C12.5062 6.49494 11.5817 7.8748 11.5817 9.40577V9.46827L9.1848 12.9368H9.02522C8.45433 12.9348 7.89684 13.1095 7.4294 13.4368L2.03802 11.2182C2.43122 6.01377 6.77779 1.9934 12.0041 2.00001ZM8.30554 17.1865L7.0852 16.6865C7.29931 17.1614 7.69311 17.5322 8.18037 17.7177C9.26649 18.1594 10.5059 17.643 10.9559 16.5616C11.1781 16.0427 11.1781 15.4555 10.9559 14.9367C10.5134 13.8748 9.31078 13.3508 8.23044 13.7492L9.51648 14.2804C9.90142 14.434 10.2081 14.7361 10.3671 15.1184C10.5261 15.5007 10.524 15.9308 10.3613 16.3116C10.0152 17.1067 9.10576 17.4914 8.29302 17.1865H8.30554ZM13.4591 9.40577C13.459 9.90903 13.6615 10.3912 14.0211 10.7438C14.3807 11.0964 14.8671 11.2899 15.371 11.2806C16.4135 11.2808 17.264 10.4468 17.2828 9.40577C17.2828 8.35132 16.4268 7.49652 15.371 7.49652C14.3151 7.49652 13.4591 8.35132 13.4591 9.40577ZM17.8398 9.43702C17.855 10.4668 17.2454 11.4037 16.2969 11.8081C15.3484 12.2125 14.2492 12.0042 13.515 11.2809C12.7807 10.5576 12.5572 9.46286 12.9491 8.51021C13.3411 7.55756 14.2708 6.93603 15.3021 6.93718C15.9737 6.92193 16.6228 7.17927 17.1011 7.6504C17.5794 8.12153 17.8459 8.76617 17.8398 9.43702Z" fill="black"/>
</svg>
