<svg width="24" height="24" viewBox="0 0 24 24" fill="none" xmlns="http://www.w3.org/2000/svg">
<path d="M10.6571 2V19.1875H20.6883L18.4383 22H4.87581L6.50081 19.1562V3.96875L5.00081 2H10.6571ZM11.8758 5.75C15.7821 5.8125 18.9071 8.96875 18.9071 12.875C18.9071 14.875 18.0946 16.6875 16.7508 17.9688H18.8758C19.8758 16.5625 20.4696 14.875 20.5008 13C20.5946 8.15625 16.7196 4.1875 11.8758 4.09375H11.8446L11.8758 5.75ZM5.28206 15.875C4.84456 14.9688 4.62581 13.9375 4.62581 12.875C4.62581 11.8125 4.87581 10.7812 5.28206 9.875V6.96875C3.90706 8.5 3.03206 10.5 3.00081 12.7188C2.96956 15.0312 3.84456 17.1562 5.28206 18.75V15.875Z" fill="#CEA146"/>
</svg>
