<svg width="24" height="24" viewBox="0 0 24 24" fill="none" xmlns="http://www.w3.org/2000/svg">
<path d="M12.0041 2.00001C17.1763 2.00895 21.4906 5.95038 21.9587 11.0944C22.4268 16.2383 18.8947 20.8919 13.8088 21.8317C8.72289 22.7716 3.75714 19.6885 2.35093 14.7179L6.20594 16.3116C6.5198 17.7178 7.8363 18.6682 9.27188 18.5248C10.7075 18.3815 11.8094 17.1896 11.8382 15.7491V15.6241L15.2552 13.1868H15.3491C16.8821 13.1944 18.2684 12.278 18.8604 10.8657C19.4523 9.45349 19.133 7.82415 18.0517 6.7389C16.9704 5.65365 15.3404 5.32671 13.9233 5.91082C12.5062 6.49494 11.5817 7.8748 11.5817 9.40577V9.46827L9.1848 12.9368H9.02522C8.45433 12.9348 7.89684 13.1095 7.4294 13.4368L2.03802 11.2182C2.43122 6.01377 6.77779 1.9934 12.0041 2.00001ZM8.30554 17.1865L7.0852 16.6865C7.29931 17.1614 7.69311 17.5322 8.18037 17.7177C9.26649 18.1594 10.5059 17.643 10.9559 16.5616C11.1781 16.0427 11.1781 15.4555 10.9559 14.9367C10.5134 13.8748 9.31078 13.3508 8.23044 13.7492L9.51648 14.2804C9.90142 14.434 10.2081 14.7361 10.3671 15.1184C10.5261 15.5007 10.524 15.9308 10.3613 16.3116C10.0152 17.1067 9.10576 17.4914 8.29302 17.1865H8.30554ZM13.4591 9.40577C13.459 9.90903 13.6615 10.3912 14.0211 10.7438C14.3807 11.0964 14.8671 11.2899 15.371 11.2806C16.4135 11.2808 17.264 10.4468 17.2828 9.40577C17.2828 8.35132 16.4268 7.49652 15.371 7.49652C14.3151 7.49652 13.4591 8.35132 13.4591 9.40577ZM17.8398 9.43702C17.855 10.4668 17.2454 11.4037 16.2969 11.8081C15.3484 12.2125 14.2492 12.0042 13.515 11.2809C12.7807 10.5576 12.5572 9.46286 12.9491 8.51021C13.3411 7.55756 14.2708 6.93603 15.3021 6.93718C15.9737 6.92193 16.6228 7.17927 17.1011 7.6504C17.5794 8.12153 17.8459 8.76617 17.8398 9.43702Z" fill="white"/>
</svg>
