<svg width="24" height="24" viewBox="0 0 24 24" fill="none" xmlns="http://www.w3.org/2000/svg">
<g clip-path="url(#clip0)">
<path d="M11.0044 21.9585C9.46481 21.8119 7.90517 21.2589 6.56358 20.3839C5.44002 19.651 5.18638 19.3512 5.18638 18.7493C5.18638 17.5434 6.51463 15.4292 8.784 13.0218C10.0744 11.6537 11.8699 10.0503 12.0635 10.0925C12.4417 10.1769 15.4608 13.1217 16.5911 14.5053C18.3799 16.6995 19.2031 18.4939 18.7848 19.2935C18.4666 19.902 16.4976 21.0901 15.0515 21.5454C13.8589 21.9229 12.2926 22.0828 11.0044 21.9585ZM3.67125 17.4968C2.73903 16.0666 2.26736 14.6563 2.03819 12.6198C1.96255 11.9469 1.98925 11.5627 2.20951 10.1813C2.48317 8.46017 3.46211 6.47029 4.64129 5.24439C5.14411 4.72249 5.18861 4.70916 5.80045 4.9157C6.54355 5.16666 7.33561 5.71299 8.56596 6.82563L9.28459 7.47412L8.89302 7.95604C7.07085 10.1902 5.15079 13.3571 4.4277 15.3159C4.0339 16.3797 3.87594 17.4502 4.04503 17.8943C4.15849 18.1941 4.05393 18.0831 3.67125 17.4968ZM20.0463 17.7389C20.1375 17.2902 20.0218 16.4641 19.7482 15.6313C19.1586 13.828 17.1807 10.47 15.3652 8.18923L14.7934 7.47189L15.4119 6.90336C16.2195 6.1616 16.7802 5.71743 17.3853 5.3421C17.8637 5.04451 18.5445 4.78245 18.8382 4.78245C19.0184 4.78245 19.6547 5.44204 20.1687 6.16382C20.9652 7.27868 21.5503 8.6334 21.8462 10.0414C22.0375 10.952 22.0531 12.8996 21.8774 13.8057C21.7327 14.5497 21.4257 15.5158 21.1276 16.1732C20.9029 16.664 20.3466 17.6167 20.1019 17.9276C19.9773 18.0831 19.9773 18.0831 20.0463 17.7389ZM11.1691 4.44044C10.3303 4.01404 9.03763 3.55877 8.32345 3.4344C8.07204 3.3922 7.64709 3.36777 7.37343 3.3811C6.78384 3.40997 6.81054 3.3811 7.75611 2.93471C8.54149 2.56383 9.19782 2.34618 10.0878 2.15963C11.089 1.94865 12.969 1.94643 13.9546 2.15519C15.0181 2.3795 16.2707 2.84587 16.976 3.27894L17.1851 3.40775L16.7045 3.38332C15.7478 3.33446 14.3551 3.72089 12.8577 4.44932C12.4061 4.66919 12.0145 4.84463 11.9856 4.83797C11.9589 4.83353 11.5896 4.65364 11.1691 4.44044Z" fill="white"/>
</g>
<defs>
<clipPath id="clip0">
<rect width="103.869" height="103.869" fill="white" transform="scale(0.231061)"/>
</clipPath>
</defs>
</svg>
