<svg width="255" height="255" viewBox="0 0 255 255" fill="none" xmlns="http://www.w3.org/2000/svg">
<path d="M229 128C229 72.2192 183.781 27 128 27C72.2192 27 27 72.2192 27 128C27 183.781 72.2192 229 128 229C183.781 229 229 183.781 229 128Z" fill="white"/>
<path d="M67.9481 109.473C56.5217 109.473 47 114.378 47 129.181C47 140.908 53.4027 148.293 68.2426 148.293C85.7104 148.293 86.8299 136.646 86.8299 136.646H78.3663C78.3663 136.646 76.5518 142.917 67.7266 142.917C60.5387 142.917 55.3691 138.002 55.3691 131.115H87.7156V126.792C87.7156 119.978 83.4414 109.473 67.9481 109.473ZM67.6526 114.997C74.4946 114.997 79.159 119.24 79.159 125.598H55.556C55.556 118.848 61.6449 114.997 67.6526 114.997Z" fill="#E53238"/>
<path d="M87.7093 95.1385V140.859C87.7093 143.454 87.5261 147.098 87.5261 147.098H95.5985C95.5985 147.098 95.8887 144.481 95.8887 142.089C95.8887 142.089 99.8771 148.405 110.722 148.405C122.142 148.405 129.9 140.379 129.9 128.882C129.9 118.186 122.775 109.584 110.741 109.584C99.4719 109.584 95.9703 115.743 95.9703 115.743V95.1385H87.7093ZM108.657 115.239C116.412 115.239 121.344 121.065 121.344 128.882C121.344 137.266 115.648 142.749 108.713 142.749C100.435 142.749 95.9703 136.208 95.9703 128.957C95.9703 122.201 99.9766 115.239 108.657 115.239Z" fill="#0064D2"/>
<path d="M149.963 109.473C132.774 109.473 131.671 118.999 131.671 120.521H140.227C140.227 120.521 140.676 114.959 149.373 114.959C155.025 114.959 159.404 117.578 159.404 122.612V124.403H149.373C136.056 124.403 129.016 128.347 129.016 136.348C129.016 144.223 135.521 148.507 144.312 148.507C156.293 148.507 160.152 141.807 160.152 141.807C160.152 144.473 160.354 147.098 160.354 147.098H167.96C167.96 147.098 167.666 143.844 167.666 141.761V123.759C167.666 111.956 158.26 109.473 149.963 109.473ZM159.404 129.779V132.167C159.404 135.283 157.505 143.03 146.321 143.03C140.197 143.03 137.572 139.936 137.572 136.348C137.572 129.821 146.414 129.779 159.404 129.779Z" fill="#F5AF02"/>
<path d="M163.058 110.967H172.684L186.498 138.978L200.28 110.967H209L183.896 160.836H174.749L181.993 146.935L163.058 110.967Z" fill="#86B817"/>
</svg>
