<svg width="24" height="24" viewBox="0 0 24 24" fill="none" xmlns="http://www.w3.org/2000/svg">
<g clip-path="url(#clip0)">
<path d="M11.9992 10.0191C12.0115 10.0212 12.023 10.027 12.0319 10.0358C15.0223 12.3103 20.143 17.9377 18.5836 19.5272C16.7611 21.1214 14.4221 22 12.0008 22C9.57956 22 7.24055 21.1214 5.41801 19.5272C3.85591 17.9377 8.97328 12.3103 11.9658 10.0358C11.9751 10.0271 11.9867 10.0213 11.9992 10.0191ZM17.2082 3.46338C15.6766 2.55335 14.0173 2 11.9992 2C9.98098 2 8.32167 2.55557 6.79012 3.46338C6.78162 3.46799 6.77517 3.47565 6.77208 3.48483C6.76899 3.494 6.76948 3.504 6.77345 3.51282C6.77823 3.52103 6.78577 3.52727 6.79473 3.53042C6.80369 3.53358 6.81347 3.53345 6.82234 3.53005C8.7583 3.1117 11.6992 4.78397 11.978 4.95175C11.9842 4.95629 11.9915 4.95898 11.9992 4.95953C12.0068 4.95908 12.0141 4.95637 12.0203 4.95175C12.298 4.78508 15.2422 3.1117 17.1765 3.53005C17.1853 3.53341 17.195 3.53353 17.2039 3.53037C17.2127 3.52721 17.2202 3.52099 17.2249 3.51282C17.2292 3.50388 17.2298 3.49361 17.2267 3.48418C17.2236 3.47475 17.217 3.46689 17.2082 3.46227V3.46338ZM4.99971 4.86842C4.98334 4.87727 4.96852 4.88872 4.95582 4.90231C3.23359 6.61112 2.19152 8.88801 2.0239 11.3085C1.85628 13.7289 2.57454 16.1278 4.04478 18.0577C4.05034 18.0669 4.05914 18.0736 4.06942 18.0766C4.07971 18.0796 4.09074 18.0786 4.10033 18.0738C4.10797 18.0679 4.1133 18.0595 4.11543 18.0501C4.11756 18.0406 4.11635 18.0308 4.112 18.0221C3.34984 15.6654 7.24675 9.95135 9.25937 7.55572C9.26731 7.54806 9.27223 7.53781 9.27326 7.52683C9.27303 7.52035 9.27137 7.51399 9.26839 7.50823C9.26541 7.50247 9.26119 7.49744 9.25604 7.4935C6.2035 4.45952 5.16803 4.78175 4.99971 4.86842ZM14.7451 7.4935C14.7398 7.49735 14.7355 7.50236 14.7325 7.50815C14.7295 7.51393 14.7279 7.52032 14.7278 7.52683C14.7289 7.53769 14.7336 7.54787 14.7412 7.55572C16.7538 9.95135 20.6513 15.6671 19.8891 18.0221C19.8847 18.0308 19.8835 18.0406 19.8857 18.0501C19.8878 18.0595 19.8931 18.0679 19.9008 18.0738C19.9104 18.0784 19.9214 18.0794 19.9316 18.0764C19.9419 18.0734 19.9507 18.0668 19.9563 18.0577C21.4259 16.1275 22.1437 13.7288 21.9761 11.3085C21.8085 8.88828 20.7669 6.61148 19.0453 4.90231C19.0324 4.8887 19.0174 4.87726 19.0008 4.86842C18.8303 4.78175 17.7948 4.45952 14.7451 7.4935Z" fill="#107C10"/>
</g>
<defs>
<clipPath id="clip0">
<rect width="103.869" height="103.869" fill="white" transform="scale(0.231061)"/>
</clipPath>
</defs>
</svg>
