<svg width="255" height="255" viewBox="0 0 255 255" fill="none" xmlns="http://www.w3.org/2000/svg">
<path opacity="0.5" fill-rule="evenodd" clip-rule="evenodd" d="M116.801 84.6667H158.708C181.209 84.6667 189.679 96.3396 188.37 113.488C186.207 141.8 169.504 157.463 147.349 157.463H136.164C133.124 157.463 131.08 159.525 130.258 165.112L125.509 197.591C125.195 199.698 124.114 200.917 122.491 201.083H96.1609C93.6833 201.083 92.8076 199.143 93.4563 194.942L109.51 90.8188C110.137 86.6511 112.366 84.6667 116.801 84.6667Z" fill="white"/>
<path fill-rule="evenodd" clip-rule="evenodd" d="M91.5395 47.625H134.623C146.755 47.625 161.154 48.0202 170.774 56.6573C177.207 62.4263 180.585 71.6058 179.807 81.4959C177.162 114.927 157.487 133.657 131.09 133.657H109.848C106.227 133.657 103.838 136.096 102.816 142.689L96.883 181.076C96.4941 183.56 95.4389 185.028 93.5504 185.208H66.9645C64.0202 185.208 62.9762 182.95 63.7424 177.96L82.8517 54.9185C83.6179 49.9734 86.2955 47.625 91.5395 47.625Z" fill="white"/>
</svg>
