<svg width="24" height="24" viewBox="0 0 24 24" fill="none" xmlns="http://www.w3.org/2000/svg">
<path fill-rule="evenodd" clip-rule="evenodd" d="M23.6687 17.1554C23.2046 17.741 22.0675 18.1587 22.0675 18.1587L13.6085 21.1971V18.9563L19.8337 16.7383C20.5402 16.4851 20.6486 16.1273 20.0744 15.9395C19.5013 15.7512 18.4635 15.8052 17.7565 16.0593L13.6085 17.5203V15.1948L13.8476 15.1138C13.8476 15.1138 15.0462 14.6896 16.7317 14.5029C18.4171 14.3173 20.4808 14.5283 22.1009 15.1424C23.9267 15.7193 24.1323 16.5699 23.6687 17.1554ZM14.4137 13.3399V7.60959C14.4137 6.93661 14.2896 6.31705 13.6582 6.14166C13.1746 5.98677 12.8746 6.43578 12.8746 7.10822V21.4583L9.00453 20.23V3.12C10.65 3.42545 13.0473 4.14754 14.336 4.58199C17.6135 5.70722 18.7247 7.10768 18.7247 10.2632C18.7247 13.3388 16.8261 14.5045 14.4137 13.3399ZM1.90344 18.7221C0.0291303 18.1943 -0.282804 17.0944 0.571508 16.4609C1.36106 15.8758 2.70378 15.4355 2.70378 15.4355L8.25276 13.4624V15.7118L4.25967 17.1409C3.55431 17.394 3.44584 17.7523 4.01898 17.9401C4.59266 18.1279 5.631 18.0745 6.33744 17.8209L8.25276 17.1257V19.1382C8.13133 19.1598 7.99587 19.1814 7.87067 19.2024C5.95481 19.5154 3.91428 19.3848 1.90344 18.7221Z" fill="white"/>
</svg>
