<svg width="255" height="255" viewBox="0 0 255 255" fill="none" xmlns="http://www.w3.org/2000/svg">
<path d="M17 128C17 188.751 66.2487 238 127 238C187.751 238 237 188.751 237 128C237 67.2487 187.751 18 127 18C66.2487 18 17 67.2487 17 128Z" fill="white"/>
<path d="M185.828 93.3215V87.5428C179.206 87.5491 172.726 85.6223 167.183 81.9988C171.964 87.4915 178.458 91.7448 185.828 93.3215Z" fill="#25F4EE"/>
<path d="M167.183 81.9988C161.744 75.7859 158.747 67.8088 158.75 59.5515H152.058C152.934 64.1202 154.725 68.4642 157.325 72.322C159.924 76.1798 163.278 79.4715 167.183 81.9988V81.9988Z" fill="#FE2C55"/>
<path d="M112.4 112.271V106.301C110.377 106.016 108.337 105.868 106.295 105.858C94.2862 105.872 82.7739 110.649 74.2827 119.14C65.7915 127.631 61.0148 139.144 61.0002 151.152C61.0028 158.434 62.7619 165.607 66.1285 172.064C69.495 178.52 74.3695 184.07 80.3382 188.24C72.5637 179.859 68.2715 168.832 68.3336 157.4C68.3228 145.611 72.9288 134.286 81.1651 125.851C89.4015 117.416 100.613 112.541 112.4 112.271V112.271Z" fill="#25F4EE"/>
<path d="M113.467 178.212C124.613 178.212 133.831 169.221 134.246 158.177L134.334 59.6945H152.19L152.165 59.5442C151.779 57.4887 151.584 55.4021 151.582 53.3108H127L126.96 151.944C126.756 157.287 124.493 162.343 120.644 166.054C116.795 169.765 111.659 171.842 106.313 171.85C102.969 171.852 99.6746 171.036 96.7173 169.474C100.461 174.674 106.566 178.212 113.467 178.212Z" fill="#25F4EE"/>
<path d="M106.294 130.278C94.8874 130.278 85.4714 139.749 85.4714 151.152C85.4714 159.098 90.1134 165.998 96.6988 169.463C94.1531 165.956 92.7824 161.734 92.7828 157.4C92.7886 151.916 94.9695 146.658 98.8471 142.78C102.725 138.901 107.982 136.72 113.466 136.713C115.538 136.718 117.597 137.04 119.571 137.67V112.546C117.549 112.26 115.509 112.112 113.466 112.102C113.1 112.102 112.755 112.12 112.399 112.131H112.304L112.238 131.147C110.314 130.549 108.309 130.255 106.294 130.278Z" fill="#FE2C55"/>
<path d="M185.828 93.0281L185.711 93.0061V112.007C173.402 111.977 161.413 108.08 151.439 100.867V151.141C151.449 157.074 150.289 162.951 148.024 168.435C145.76 173.919 142.436 178.902 138.242 183.099C134.048 187.296 129.068 190.625 123.586 192.894C118.104 195.163 112.228 196.328 106.295 196.322C97.0172 196.377 87.9503 193.559 80.3383 188.255C84.5679 192.815 89.6934 196.452 95.3939 198.939C101.094 201.427 107.247 202.71 113.467 202.709C125.478 202.695 136.994 197.917 145.486 189.423C153.978 180.928 158.754 169.412 158.765 157.4V107.387C168.739 114.557 180.716 118.405 193 118.387V93.7908C190.589 93.7898 188.185 93.5341 185.828 93.0281V93.0281Z" fill="#FE2C55"/>
<path d="M151.589 151.152V101.142C161.565 108.312 173.543 112.16 185.828 112.142V93.0171C178.584 91.4537 172.042 87.5838 167.183 81.9878C163.292 79.4572 159.955 76.1628 157.375 72.3042C154.794 68.4457 153.024 64.1034 152.172 59.5405H134.154L134.114 158.174C133.911 163.517 131.648 168.574 127.799 172.285C123.949 175.996 118.813 178.073 113.467 178.08C110.188 178.077 106.958 177.293 104.042 175.794C101.126 174.295 98.6093 172.124 96.6989 169.46C93.3564 167.709 90.5562 165.077 88.6012 161.85C86.6463 158.622 85.611 154.922 85.6072 151.148C85.614 145.664 87.7959 140.407 91.6741 136.529C95.5524 132.652 100.81 130.471 106.295 130.465C108.366 130.47 110.425 130.792 112.4 131.418V112.128C87.9172 112.703 68.1722 132.767 68.1722 157.4C68.1668 168.852 72.5161 179.877 80.3382 188.24C87.9364 193.589 97.0028 196.456 106.295 196.45C118.304 196.436 129.817 191.66 138.309 183.167C146.8 174.675 151.576 163.161 151.589 151.152V151.152Z" fill="black"/>
</svg>
