<svg width="256" height="256" viewBox="0 0 256 256" fill="none" xmlns="http://www.w3.org/2000/svg">
<path fill-rule="evenodd" clip-rule="evenodd" d="M27.6813 15L128.872 19.8639L230.064 15V124.285L249.57 138.544C251.026 139.608 251.43 141.606 250.504 143.152C249.577 144.699 247.625 145.285 245.999 144.504L229.836 136.74C226.961 157.95 203.235 204.737 129.498 241.687L128.872 242L128.247 241.687C51.9765 203.468 29.2127 154.723 27.6853 134.646L27.6813 134.593V56.8117L6.62346 43.484C5.10898 42.5255 4.5672 40.5756 5.37016 38.9734C6.17312 37.3712 8.05962 36.6379 9.73418 37.277L27.6813 44.1265V15ZM227.272 17.9284V122.244L223.085 119.183V22.395L128.872 26.9303L34.6599 22.395V46.7899L30.4727 45.1918V17.9284L128.872 22.6581L227.272 17.9284ZM8.49021 40.5364L8.4898 40.5363L27.6813 52.6828L30.4727 54.4495L34.6599 57.0996L84.5577 88.6804L88.0471 73.33L97.1194 80.3075L105.145 65.306H105.645C106.134 65.306 106.332 64.6753 105.93 64.3956L71.6471 40.5362L73.3918 65.306L34.6599 50.5241L30.4727 48.9261L27.6813 47.8607L8.48987 40.5362L8.49021 40.5364ZM30.4727 134.486V58.5785L34.6599 61.2286V134.034C36.0557 152.407 57.1313 198.156 128.872 234.159C200.613 198.156 221.689 152.407 223.085 134.034V133.497L227.18 135.465C225.057 154.874 202.74 201.663 128.872 238.877C53.7328 201.022 31.9347 153.26 30.4727 134.486ZM111.279 65.0699L118.239 53.2695C118.522 52.7898 119.142 52.6337 119.619 52.9223L129.427 58.8656C129.894 59.1485 130.048 59.7534 129.773 60.2248L123.408 71.1342C123.144 71.5858 122.577 71.7582 122.107 71.5298L111.703 66.4775C111.178 66.2223 110.982 65.573 111.279 65.0699ZM117.358 148.686C115.284 146.872 110.441 143.312 107.804 141.416C107.464 141.172 107.312 140.742 107.423 140.338L112.007 123.643C112.081 123.372 112.039 123.083 111.89 122.846L93.5955 93.7164C93.4016 93.4076 93.3911 93.0177 93.5683 92.6989L106.788 68.9081C107.042 68.4507 107.606 68.2665 108.081 68.4858L133.434 80.185C133.978 80.4359 134.18 81.1051 133.867 81.6156L128.266 90.7523C128.012 91.1677 127.495 91.3391 127.043 91.1582L114.722 86.2311C114.24 86.038 113.689 86.2472 113.457 86.7123L112.576 88.4726C112.327 88.9709 112.533 89.5768 113.035 89.8198L123.343 94.8168C123.535 94.9099 123.692 95.062 123.791 95.2508L130.494 107.982C130.575 108.136 130.694 108.266 130.841 108.36L150.112 120.651C150.537 120.922 150.694 121.467 150.478 121.922L147.856 127.457C147.764 127.65 147.737 127.867 147.778 128.077L150.707 143.043C150.794 143.49 150.571 143.939 150.16 144.135C147.061 145.618 141.68 148.169 140.387 148.686C139.935 148.867 139.435 149.259 138.822 149.741C137.07 151.117 134.39 153.221 129.221 153.221C122.52 153.221 120.323 151.291 117.687 148.976L117.521 148.829L117.358 148.686ZM63.6216 134.731C64.8198 135.73 64.8989 137.264 64.6765 138.439C64.5584 139.063 64.9137 139.761 65.5453 139.695C69.2623 139.306 69.5216 132.764 69.2045 130.545C68.9617 128.846 72.9418 130.693 76.2087 132.21C77.6372 132.873 78.9295 133.472 79.6726 133.685C81.4866 134.203 81.5685 136.645 81.6334 138.583V138.583C81.6559 139.254 81.6764 139.864 81.7662 140.313C81.8105 140.535 81.8605 140.734 81.9075 140.922C82.2305 142.208 82.4138 142.939 79.6726 146.593C77.3539 149.684 84.7366 151.254 91.5678 152.706C93.9886 153.22 96.3401 153.72 98.1661 154.268C100.727 155.036 103.569 157.26 106.796 159.785C112.366 164.143 119.082 169.398 127.477 169.618C137.706 169.888 145.027 165.589 149.762 162.809L149.763 162.809C151.165 161.985 152.341 161.295 153.298 160.897C155.159 160.121 157.159 159.69 159.266 159.237C161.898 158.67 164.697 158.067 167.604 156.71C171.981 154.668 175.869 156.041 178.454 156.954C178.96 157.132 179.417 157.294 179.817 157.408C182.259 158.106 180.515 160.548 176.328 160.897C172.14 161.245 175.63 169.618 177.374 171.014C179.119 172.409 182.957 172.758 185.749 172.758C187.415 172.758 185.724 175.369 184.313 177.547C183.361 179.019 182.535 180.293 182.957 180.433C184.004 180.782 188.191 175.2 188.191 173.805C188.191 172.409 188.54 171.363 189.936 168.223C191.332 165.083 190.983 165.083 186.098 165.083C183.283 165.083 185.219 162.998 187.231 160.83C188.711 159.236 190.232 157.597 189.936 156.71C183.655 138.918 170.396 143.104 167.604 144.151C167.328 144.254 167.058 144.358 166.791 144.461C164.354 145.398 162.063 146.279 156.089 146.593C149.46 146.942 143.179 150.779 137.945 154.268C132.711 157.757 125.034 156.71 120.498 154.966C117.663 153.875 114.282 151.013 111.123 148.338L111.122 148.338C109.228 146.734 107.413 145.197 105.843 144.151C101.655 141.36 90.8385 138.918 88.7449 138.569C87.5066 138.363 89.198 137.058 91.0033 135.665C92.2501 134.703 93.5513 133.7 93.9789 132.987C95.0257 131.243 93.9789 129.498 91.8853 127.754C89.7917 126.01 85.2555 124.963 80.3704 124.614C77.9699 124.443 76.3277 123.681 74.5743 122.869C72.7595 122.028 70.8257 121.131 67.8088 120.777C61.8769 120.079 59.7833 123.219 59.4343 125.661C59.0854 128.103 61.528 132.987 63.6216 134.731ZM132.877 62.0053L126.623 72.4266C126.328 72.9178 126.506 73.5556 127.012 73.8243L136.424 78.8237C136.888 79.07 137.463 78.9158 137.741 78.4706L143.703 68.933C143.993 68.4694 143.857 67.859 143.397 67.5626L134.277 61.6795C133.802 61.3733 133.168 61.5209 132.877 62.0053ZM146.131 70.6982L132.552 92.3561C132.255 92.8289 132.403 93.4527 132.88 93.7422L140.946 98.6385C141.411 98.9208 142.017 98.7796 142.309 98.3206L155.904 76.9609C156.199 76.4965 156.064 75.8805 155.601 75.5828L147.519 70.3882C147.051 70.0872 146.427 70.2266 146.131 70.6982ZM145.124 99.6761L158 79.4012C158.294 78.9374 158.908 78.7981 159.374 79.0893L166.062 83.2685C166.529 83.5603 166.672 84.1748 166.382 84.643L153.817 104.937C153.529 105.402 152.921 105.549 152.452 105.268L145.454 101.07C144.972 100.78 144.823 100.151 145.124 99.6761ZM127.477 94.6112L133.409 106.124L181.213 137.173L185.051 111.357L248.208 141.709L173.536 87.2849L170.745 111.357L158.881 101.589L155.708 106.029C154.532 107.676 152.311 108.185 150.535 107.214L127.477 94.6112ZM110.728 192.644L104.796 186.713L103.615 186.418C102.693 186.187 102.083 185.31 102.188 184.365L102.198 184.273C102.289 183.453 102.931 182.803 103.749 182.701C104.567 182.599 105.349 183.072 105.639 183.844L106.192 185.318L113.17 190.551L122.563 187.867C122.807 187.798 123.018 187.644 123.158 187.433C123.438 187.014 123.974 186.847 124.442 187.035L124.735 187.152C125.127 187.308 125.383 187.687 125.383 188.109C125.383 188.53 125.127 188.909 124.735 189.065L118.404 191.597L118.055 192.993L128.175 202.255L138.294 192.993L137.945 191.597L131.614 189.065C131.223 188.909 130.966 188.53 130.966 188.109C130.966 187.687 131.223 187.308 131.614 187.152L131.907 187.035C132.375 186.847 132.911 187.014 133.191 187.433C133.332 187.644 133.542 187.798 133.786 187.867L143.179 190.551L150.158 185.318L150.71 183.844C151 183.072 151.782 182.599 152.6 182.701C153.419 182.803 154.06 183.453 154.151 184.273L154.161 184.365C154.266 185.31 153.656 186.187 152.734 186.418L151.553 186.713L145.621 192.644L146.299 202.802C146.312 203.004 146.379 203.2 146.491 203.368C146.796 203.825 146.738 204.436 146.35 204.824C145.935 205.238 145.275 205.275 144.817 204.909L144.489 204.646C144.121 204.352 143.976 203.86 144.125 203.413C144.191 203.215 144.2 203.002 144.153 202.799L142.83 197.179H141.783L131.625 205.414L142.83 215.669L143.528 218.111H140.387L128.175 208.211L115.962 218.111H112.821L113.519 215.669L124.724 205.414L114.566 197.179H113.519L112.197 202.799C112.149 203.002 112.159 203.215 112.225 203.413C112.374 203.86 112.228 204.352 111.86 204.646L111.532 204.909C111.074 205.275 110.414 205.238 109.999 204.824C109.611 204.436 109.553 203.825 109.858 203.368C109.97 203.2 110.037 203.004 110.051 202.802L110.728 192.644ZM204.94 40.8853H190.983V44.374H200.055C195.031 49.3978 194.007 56.7008 194.123 59.7243H198.659C198.659 50.2351 202.847 45.5369 204.94 44.374V40.8853Z" fill="white"/>
</svg>
