<svg width="255" height="255" viewBox="0 0 255 255" fill="none" xmlns="http://www.w3.org/2000/svg">
<path d="M229 128C229 72.2192 183.781 27 128 27C72.2192 27 27 72.2192 27 128C27 183.781 72.2192 229 128 229C183.781 229 229 183.781 229 128Z" fill="white"/>
<path fill-rule="evenodd" clip-rule="evenodd" d="M120.898 94.0834H157.196C176.685 94.0834 184.021 104.194 182.887 119.047C181.014 143.569 166.547 157.135 147.358 157.135H137.67C135.037 157.135 133.266 158.921 132.554 163.76L128.441 191.892C128.169 193.716 127.232 194.773 125.827 194.917H103.021C100.875 194.917 100.117 193.236 100.679 189.598L114.583 99.412C115.127 95.8021 117.057 94.0834 120.898 94.0834Z" fill="#009EE3"/>
<path fill-rule="evenodd" clip-rule="evenodd" d="M97.2862 62H134.603C145.111 62 157.582 62.3423 165.915 69.8233C171.486 74.82 174.412 82.7707 173.738 91.337C171.448 120.293 154.406 136.516 131.542 136.516H113.144C110.007 136.516 107.938 138.628 107.053 144.339L101.914 177.588C101.578 179.739 100.664 181.01 99.0279 181.167H76.0007C73.4506 181.167 72.5463 179.211 73.2099 174.888L89.7613 68.3172C90.4249 64.034 92.7441 62 97.2862 62Z" fill="#113984"/>
</svg>
