<svg width="255" height="255" viewBox="0 0 255 255" fill="none" xmlns="http://www.w3.org/2000/svg">
<path fill-rule="evenodd" clip-rule="evenodd" d="M188.143 36.3333H58.8475C48.3676 36.3333 44.5 40.201 44.5 50.6857V177.2C44.5 178.387 44.5478 179.489 44.6527 180.51C44.8913 182.799 44.9362 185.016 47.0646 187.541C47.2726 187.789 49.4457 189.406 49.4457 189.406C50.6146 189.979 51.4127 190.401 52.731 190.932L116.398 217.606C119.703 219.121 121.085 219.712 123.486 219.664V219.664C123.489 219.664 123.492 219.664 123.495 219.664C123.498 219.664 123.501 219.664 123.504 219.664V219.664C125.905 219.712 127.287 219.121 130.593 217.606L194.259 190.932C195.578 190.401 196.376 189.979 197.545 189.406C197.545 189.406 199.718 187.789 199.925 187.541C202.054 185.016 202.099 182.799 202.337 180.51C202.442 179.489 202.49 178.387 202.49 177.2V50.6857C202.49 40.201 198.622 36.3333 188.143 36.3333Z" fill="white"/>
<path d="M179.481 163.527L179.452 163.819L179.423 164.14L179.364 164.432L179.277 164.723L179.22 164.986L179.133 165.278L179.016 165.541L178.899 165.774L178.784 166.037L178.638 166.27L178.493 166.504L178.319 166.737L178.173 166.971L178 167.175L177.795 167.379L177.622 167.554L177.389 167.759L177.186 167.934L176.953 168.109L176.721 168.253L176.489 168.428L176.227 168.574L175.965 168.691L175.705 168.836L175.413 168.953L175.123 169.07L174.833 169.157L174.543 169.245L174.28 169.333L173.99 169.391L173.729 169.449L173.468 169.508L173.176 169.566L172.886 169.595L172.625 169.624L172.333 169.654L172.014 169.683L171.724 169.712H171.434H171.115H170.794H170.504L170.213 169.683H169.894L169.604 169.654L169.312 169.624L168.993 169.595L168.703 169.537L168.413 169.508L168.121 169.449L167.831 169.391L167.541 169.333L167.25 169.274L166.959 169.187L166.698 169.128L166.408 169.041L166.117 168.953L165.855 168.836L165.565 168.749L165.304 168.662L165.014 168.545L164.751 168.428L164.49 168.311L164.229 168.167L163.967 168.05L163.706 167.904L163.474 167.759L163.211 167.613L162.98 167.467L162.746 167.321L162.514 167.146L162.283 166.971L162.049 166.796L161.817 166.62L161.613 166.445L161.381 166.241L161.556 166.008L161.759 165.803L161.934 165.57L162.137 165.336L162.312 165.132L162.485 164.899L162.69 164.665L162.863 164.461L163.067 164.228L163.241 164.023L163.445 163.79L163.618 163.556L163.793 163.352L163.996 163.119L164.171 162.885L164.373 162.681L164.548 162.448L164.78 162.623L165.041 162.798L165.275 162.973L165.536 163.148L165.769 163.294L166.03 163.469L166.262 163.615L166.525 163.731L166.756 163.877L167.017 163.994L167.28 164.111L167.541 164.228L167.802 164.315L168.064 164.432L168.354 164.519L168.645 164.607L168.905 164.694L169.197 164.753L169.487 164.811L169.777 164.87L170.097 164.899L170.388 164.957H170.679L170.998 164.986H171.288H171.636L171.956 164.957L172.248 164.899L172.508 164.84L172.769 164.782L173.003 164.694L173.206 164.578L173.439 164.403L173.612 164.198L173.729 163.965L173.817 163.702L173.845 163.41V163.352L173.817 163.002L173.7 162.71L173.554 162.506L173.351 162.331L173.118 162.156L172.886 162.039L172.625 161.922L172.333 161.805L171.985 161.66L171.782 161.601L171.551 161.543L171.288 161.455L171.027 161.397L170.737 161.309L170.445 161.251L170.126 161.163L169.836 161.105L169.516 161.018L169.226 160.959L168.934 160.872L168.645 160.813L168.354 160.726L168.092 160.638L167.802 160.58L167.541 160.492L167.28 160.405L167.017 160.317L166.698 160.2L166.408 160.083L166.117 159.967L165.826 159.85L165.565 159.704L165.275 159.558L165.041 159.413L164.78 159.267L164.548 159.092L164.315 158.946L164.113 158.77L163.909 158.566L163.706 158.362L163.531 158.157L163.357 157.953L163.211 157.749L163.067 157.515L162.921 157.253L162.804 157.051L162.717 156.817L162.631 156.554L162.544 156.321L162.485 156.029L162.427 155.766L162.398 155.475L162.369 155.183L162.339 154.862V154.541V154.482V154.19L162.369 153.899L162.398 153.636L162.427 153.344L162.485 153.082L162.544 152.819L162.631 152.556L162.69 152.294L162.804 152.031L162.921 151.768L163.038 151.506L163.182 151.243L163.328 150.981L163.501 150.747L163.677 150.514L163.879 150.28L164.083 150.076L164.286 149.842L164.52 149.638L164.722 149.492L164.955 149.317L165.187 149.142L165.419 148.996L165.682 148.85L165.943 148.733L166.203 148.588L166.466 148.471L166.756 148.383L167.046 148.267L167.309 148.179L167.541 148.121L167.802 148.062L168.064 148.004L168.354 147.946L168.615 147.887L168.905 147.858L169.197 147.829L169.487 147.8L169.777 147.771H170.067H170.388H170.708H171.027L171.346 147.8L171.666 147.829H171.956L172.277 147.858L172.567 147.916L172.886 147.946L173.176 148.004L173.439 148.062L173.729 148.121L174.019 148.179L174.28 148.237L174.572 148.325L174.833 148.412L175.094 148.471L175.385 148.588L175.646 148.675L175.907 148.792L176.168 148.909L176.46 149.025L176.721 149.171L176.953 149.288L177.215 149.434L177.476 149.58L177.708 149.726L177.971 149.901L178.203 150.047L178.436 150.222L178.668 150.397L178.899 150.572L178.726 150.806L178.58 151.039L178.407 151.272L178.232 151.506L178.058 151.768L177.912 152.002L177.737 152.236L177.564 152.469L177.418 152.702L177.244 152.936L177.07 153.169L176.923 153.403L176.75 153.665L176.575 153.899L176.402 154.132L176.256 154.366L176.082 154.599L175.849 154.424L175.588 154.278L175.356 154.132L175.123 153.957L174.862 153.841L174.628 153.694L174.368 153.578L174.136 153.461L173.873 153.344L173.641 153.228L173.381 153.14L173.147 153.023L172.828 152.936L172.538 152.848L172.248 152.761L171.956 152.702L171.666 152.644L171.376 152.585L171.086 152.556L170.794 152.527L170.533 152.498H170.243H169.894L169.575 152.556L169.283 152.615L169.022 152.673L168.79 152.79L168.586 152.906L168.325 153.14L168.15 153.403L168.035 153.665L168.006 153.957V154.016L168.035 154.395L168.179 154.716L168.296 154.891L168.498 155.095L168.761 155.241L168.993 155.387L169.283 155.504L169.604 155.621L169.952 155.737L170.184 155.796L170.416 155.883L170.679 155.941L170.939 156.029L171.229 156.088L171.551 156.175L171.87 156.262L172.189 156.35L172.508 156.408L172.798 156.496L173.118 156.584L173.41 156.642L173.7 156.729L173.99 156.817L174.251 156.905L174.543 156.992L174.804 157.08L175.064 157.167L175.385 157.282L175.675 157.428L175.965 157.545L176.256 157.691L176.519 157.837L176.78 157.983L177.011 158.128L177.244 158.304L177.476 158.449L177.708 158.654L177.942 158.858L178.144 159.092L178.348 159.296L178.522 159.529L178.697 159.792L178.841 160.025L178.987 160.288L179.104 160.522L179.191 160.784L179.277 161.047L179.335 161.309L179.394 161.601L179.452 161.893L179.481 162.185L179.511 162.506V162.827V162.885V163.206L179.481 163.527ZM159.107 169.362H158.815H158.525H158.235H157.945H157.653H157.363H157.073H156.783H156.462H156.172H155.882H155.592H155.299H155.01H154.719H154.429H154.137H153.847H153.557H153.267H152.977H152.685H152.395H152.105H151.815H151.523H151.233H150.943H150.624H150.332H150.042H149.752H149.461H149.17H148.879H148.589H148.299H148.007H147.717H147.427H147.137H146.845H146.555H146.265H145.975H145.683H145.393H145.074H144.784H144.494H144.202H143.912H143.621H143.332H143.04H142.75H142.46V169.07V168.778V168.487V168.196V167.904V167.613V167.321V167.029V166.737V166.445V166.154V165.862V165.57V165.278V164.986V164.694V164.403V164.111V163.848V163.556V163.265V162.973V162.681V162.389V162.097V161.805V161.513V161.222V160.93V160.638V160.346V160.054V159.763V159.471V159.179V158.887V158.595V158.304V158.012V157.72V157.428V157.138V156.846V156.554V156.262V155.971V155.679V155.387V155.095V154.803V154.511V154.22V153.928V153.636V153.373V153.082V152.79V152.498V152.206V151.914V151.623V151.331V151.039V150.747V150.455V150.163V149.871V149.58V149.288V148.996V148.704V148.412V148.121H142.75H143.04H143.332H143.621H143.912H144.202H144.494H144.784H145.074H145.364H145.656H145.946H146.236H146.526H146.788H147.079H147.369H147.659H147.951H148.241H148.531H148.821H149.113H149.403H149.693H149.983H150.275H150.565H150.855H151.145H151.437H151.728H152.017H152.307H152.598H152.89H153.18H153.47H153.76H154.052H154.342H154.632H154.922H155.185H155.475H155.765H156.055H156.347H156.637H156.927H157.217H157.509H157.799H158.089H158.379H158.671H158.961H159.251V148.412V148.675V148.967V149.259V149.55V149.813V150.105V150.397V150.659V150.951V151.243V151.506V151.798V152.089V152.381V152.644V152.936H158.961H158.671H158.379H158.089H157.799H157.509H157.246H156.956H156.666H156.376H156.084H155.794H155.504H155.214H154.922H154.632H154.342H154.052H153.76H153.499H153.209H152.919H152.627H152.337H152.047H151.757H151.465H151.175H150.885H150.595H150.303H150.012H149.752H149.461H149.17H148.879H148.589H148.299H148.007V153.228V153.519V153.811V154.103V154.395V154.658V154.949V155.241V155.533V155.825V156.116V156.408H148.299H148.589H148.879H149.17H149.461H149.752H150.042H150.332H150.595H150.885H151.175H151.465H151.757H152.047H152.337H152.627H152.919H153.209H153.499H153.789H154.081H154.371H154.661H154.951H155.243H155.533H155.794H156.084H156.376H156.666H156.956H157.246H157.538H157.828H158.118V156.7V156.963V157.253V157.545V157.807V158.099V158.391V158.654V158.946V159.237V159.529V159.792V160.083V160.375V160.638V160.93H157.828H157.538H157.246H156.956H156.666H156.376H156.084H155.794H155.533H155.243H154.951H154.661H154.371H154.081H153.789H153.499H153.209H152.919H152.627H152.337H152.047H151.757H151.465H151.175H150.885H150.595H150.332H150.042H149.752H149.461H149.17H148.879H148.589H148.299H148.007V161.222V161.543V161.835V162.127V162.448V162.739V163.031V163.352V163.644V163.936V164.257V164.548H148.299H148.589H148.879H149.17H149.461H149.752H150.042H150.332H150.624H150.943H151.233H151.523H151.815H152.105H152.395H152.685H152.977H153.267H153.557H153.847H154.137H154.429H154.719H155.01H155.299H155.592H155.882H156.172H156.462H156.783H157.073H157.363H157.653H157.945H158.235H158.525H158.815H159.107H159.397V164.84V165.103V165.395V165.687V165.979V166.241V166.533V166.825V167.088V167.379V167.671V167.934V168.224V168.516V168.807V169.07V169.362H159.107ZM137.879 169.362H137.589H137.299H136.979H136.688H136.398H136.108H135.816H135.526H135.207H134.917H134.626H134.335H134.045H133.755H133.435H133.143H132.853H132.563V169.07V168.778V168.487V168.195V167.901V167.609V167.317V167.025V166.734V166.442V166.15V165.857V165.565V165.273V164.981V164.689V164.396V164.104V163.812V163.52V163.228V162.937V162.643V162.351V162.06V161.768V161.476V161.184V160.89V160.598V160.307V160.015V159.723V159.431V159.138V158.846V158.554V158.263V157.971V157.677V157.385V157.093V156.801L132.418 157.035L132.244 157.299L132.098 157.533L131.925 157.766L131.779 158.029L131.603 158.263L131.46 158.496L131.313 158.76L131.14 158.994L130.994 159.227L130.819 159.461L130.675 159.725L130.5 159.958L130.356 160.192L130.21 160.454L130.035 160.689L129.89 160.923L129.715 161.186L129.571 161.419L129.396 161.653L129.252 161.917L129.106 162.151L128.931 162.384L128.787 162.647L128.612 162.882L128.468 163.115L128.292 163.349L128.146 163.611L128.002 163.846L127.827 164.08L127.683 164.343L127.508 164.576L127.362 164.809L127.189 165.074L127.043 165.307H126.928L126.753 165.045L126.607 164.809L126.433 164.547L126.287 164.313L126.114 164.051L125.968 163.816L125.795 163.553L125.649 163.319L125.474 163.057L125.329 162.823L125.154 162.559L125.01 162.325L124.835 162.063L124.689 161.829L124.516 161.565L124.37 161.332L124.197 161.069L124.022 160.836L123.876 160.571L123.702 160.338L123.556 160.075L123.383 159.842L123.237 159.577L123.064 159.344L122.918 159.081L122.743 158.848L122.598 158.585L122.423 158.35L122.279 158.087L122.104 157.854L121.958 157.591L121.785 157.358L121.639 157.093L121.465 156.86V157.152V157.444V157.736V158.029V158.321V158.612V158.904V159.196V159.49V159.782V160.044V160.336V160.628V160.92V161.213V161.505V161.797V162.088V162.38V162.672V162.966V163.258V163.55V163.841V164.133V164.425V164.719V165.01V165.302V165.594V165.886V166.179V166.442V166.734V167.025V167.317V167.609V167.901V168.195V168.487V168.778V169.07V169.362H121.175H120.884H120.593H120.303H120.013H119.722H119.431H119.141H118.851H118.559H118.269H117.979H117.689H117.397H117.107H116.817H116.527H116.235H115.945V169.07V168.778V168.487V168.196V167.904V167.613V167.321V167.029V166.737V166.445V166.154V165.862V165.57V165.278V164.986V164.694V164.403V164.111V163.848V163.556V163.265V162.973V162.681V162.389V162.097V161.805V161.513V161.222V160.93V160.638V160.346V160.054V159.763V159.471V159.179V158.887V158.595V158.304V158.012V157.72V157.428V157.138V156.846V156.554V156.262V155.971V155.679V155.387V155.095V154.803V154.511V154.22V153.928V153.636V153.373V153.082V152.79V152.498V152.206V151.914V151.623V151.331V151.039V150.747V150.455V150.163V149.871V149.58V149.288V148.996V148.704V148.412V148.121H116.235H116.527H116.788H117.078H117.368H117.66H117.921H118.211H118.503H118.793H119.054H119.344H119.636H119.926H120.187H120.477H120.769H121.059H121.32H121.61H121.902L122.046 148.354L122.192 148.617L122.365 148.848L122.511 149.111L122.657 149.344L122.801 149.607L122.947 149.839L123.121 150.102L123.266 150.335L123.412 150.569L123.556 150.829L123.702 151.063L123.876 151.325L124.022 151.559L124.167 151.82L124.312 152.053L124.487 152.287L124.633 152.548L124.777 152.781L124.923 153.044L125.067 153.277L125.242 153.538L125.388 153.772L125.532 154.034L125.678 154.266L125.822 154.499L125.997 154.762L126.143 154.996L126.287 155.258L126.433 155.49L126.577 155.753L126.753 155.986L126.899 156.247L127.043 156.481L127.189 156.247L127.335 155.986L127.508 155.753L127.654 155.49L127.798 155.258L127.944 154.996L128.117 154.762L128.263 154.499L128.409 154.266L128.553 154.034L128.728 153.772L128.873 153.538L129.019 153.277L129.164 153.044L129.338 152.781L129.483 152.548L129.63 152.287L129.774 152.053L129.92 151.82L130.093 151.559L130.239 151.325L130.385 151.063L130.529 150.829L130.704 150.569L130.849 150.335L130.994 150.102L131.14 149.839L131.313 149.607L131.46 149.344L131.603 149.111L131.75 148.848L131.925 148.617L132.069 148.354L132.215 148.121H132.505H132.795H133.058H133.348H133.638H133.928H134.191H134.481H134.771H135.061H135.324H135.614H135.904H136.194H136.456H136.747H137.037H137.327H137.589H137.879H138.17V148.412V148.704V148.996V149.288V149.58V149.871V150.163V150.455V150.747V151.039V151.331V151.623V151.914V152.206V152.498V152.79V153.082V153.373V153.636V153.928V154.22V154.511V154.803V155.095V155.387V155.679V155.971V156.262V156.554V156.846V157.138V157.428V157.72V158.012V158.304V158.595V158.887V159.179V159.471V159.763V160.054V160.346V160.638V160.93V161.222V161.513V161.805V162.097V162.389V162.681V162.973V163.265V163.556V163.848V164.111V164.403V164.694V164.986V165.278V165.57V165.862V166.154V166.445V166.737V167.029V167.321V167.613V167.904V168.196V168.487V168.778V169.07V169.362H137.879ZM104.171 160.609L104.083 160.345L103.968 160.053L103.852 159.79L103.764 159.526L103.649 159.263L103.533 158.971L103.445 158.707L103.328 158.444L103.213 158.182L103.125 157.917L103.008 157.626L102.923 157.363L102.806 157.099L102.689 156.836L102.602 156.573L102.487 156.28L102.37 156.017L102.283 155.755L102.166 155.49L102.051 155.198L101.963 154.934L101.846 154.671L101.732 154.934L101.644 155.198L101.527 155.49L101.411 155.755L101.325 156.017L101.208 156.28L101.091 156.573L100.976 156.836L100.888 157.099L100.772 157.363L100.655 157.626L100.569 157.917L100.453 158.182L100.336 158.444L100.249 158.707L100.133 158.971L100.016 159.263L99.8999 159.526L99.8143 159.79L99.6975 160.053L99.5806 160.345L99.4931 160.609L99.3782 160.872H99.6682H99.9582H100.249H100.54H100.83H101.12H101.411H101.703H101.963H102.253H102.545H102.835H103.125H103.416H103.706H103.997H104.287L104.171 160.609ZM113.295 169.362H113.003H112.742H112.452H112.16H111.87H111.58H111.319H111.027H110.737H110.447H110.157H109.865H109.604H109.314H109.023H108.732H108.442H108.181H107.891H107.599L107.484 169.099L107.396 168.836L107.28 168.574L107.163 168.282L107.077 168.021L106.96 167.759L106.844 167.496L106.758 167.233L106.641 166.971L106.524 166.708L106.437 166.445L106.322 166.154L106.205 165.891L106.117 165.628L106.001 165.366H105.71H105.42H105.13H104.84H104.578H104.287H103.997H103.706H103.416H103.125H102.835H102.545H102.253H101.963H101.703H101.411H101.12H100.83H100.54H100.249H99.9582H99.6682H99.3782H99.0881H98.8251H98.5354H98.2451H97.9531H97.6631L97.5482 165.628L97.4606 165.891L97.3438 166.154L97.2273 166.445L97.1413 166.708L97.0248 166.971L96.9079 167.233L96.8204 167.496L96.7055 167.759L96.5886 168.021L96.5011 168.282L96.3858 168.574L96.2693 168.836L96.1817 169.099L96.0649 169.362H95.7749H95.4848H95.1948H94.9028H94.6128H94.2935H94.0035H93.7131H93.4215H93.1315H92.8414H92.5511H92.2591H91.9694H91.6794H91.3601H91.0681H90.7781H90.4877H90.1977L90.3126 169.099L90.4295 168.836L90.546 168.574L90.6612 168.282L90.7488 168.021L90.8656 167.759L90.9822 167.496L91.0971 167.233L91.2139 166.971L91.3308 166.679L91.4457 166.416L91.5626 166.154L91.6498 165.891L91.7666 165.628L91.8815 165.366L91.9984 165.074L92.1149 164.811L92.2302 164.548L92.347 164.286L92.4635 164.023L92.5511 163.761L92.666 163.469L92.7829 163.206L92.8997 162.944L93.0146 162.681L93.1315 162.418L93.2483 162.156L93.3632 161.864L93.4508 161.601L93.5676 161.339L93.6842 161.076L93.7994 160.813L93.9159 160.55L94.0325 160.259L94.1477 159.996L94.2642 159.733L94.3518 159.471L94.4686 159.208L94.5835 158.946L94.7004 158.654L94.8172 158.391L94.9321 158.128L95.0487 157.866L95.1655 157.603L95.2531 157.34L95.3683 157.08L95.4848 156.788L95.6014 156.525L95.7166 156.262L95.8331 156L95.95 155.737L96.0649 155.475L96.1524 155.183L96.2693 154.92L96.3858 154.658L96.5011 154.395L96.6179 154.132L96.7344 153.87L96.8497 153.578L96.9662 153.315L97.0538 153.053L97.1703 152.79L97.2855 152.527L97.402 152.264L97.5189 151.973L97.6338 151.71L97.7507 151.447L97.8675 151.185L97.9531 150.922L98.07 150.659L98.1868 150.368L98.3037 150.105L98.4186 149.842L98.5354 149.58L98.652 149.317L98.7669 149.055L98.8548 148.763L98.9713 148.5L99.0881 148.237L99.2031 147.975H99.4931H99.7558H100.046H100.336H100.628H100.888H101.179H101.469H101.761H102.022H102.312H102.602H102.894H103.155H103.445H103.735H104.027H104.287H104.578L104.694 148.237L104.811 148.5L104.926 148.763L105.043 149.055L105.13 149.317L105.245 149.58L105.362 149.842L105.479 150.105L105.596 150.368L105.71 150.659L105.827 150.922L105.944 151.185L106.03 151.447L106.147 151.71L106.264 151.973L106.38 152.264L106.495 152.527L106.612 152.79L106.729 153.053L106.844 153.315L106.931 153.578L107.048 153.87L107.163 154.132L107.28 154.395L107.396 154.658L107.513 154.92L107.628 155.183L107.745 155.475L107.832 155.737L107.947 156L108.064 156.262L108.181 156.525L108.298 156.788L108.412 157.08L108.529 157.34L108.646 157.603L108.732 157.866L108.848 158.128L108.965 158.391L109.08 158.654L109.197 158.946L109.314 159.208L109.431 159.471L109.546 159.733L109.633 159.996L109.75 160.259L109.865 160.55L109.981 160.813L110.098 161.076L110.215 161.339L110.33 161.601L110.447 161.864L110.534 162.156L110.649 162.418L110.766 162.681L110.883 162.944L110.998 163.206L111.114 163.469L111.231 163.761L111.348 164.023L111.434 164.286L111.551 164.548L111.667 164.811L111.782 165.074L111.899 165.366L112.016 165.628L112.132 165.891L112.247 166.154L112.335 166.416L112.452 166.679L112.567 166.971L112.683 167.233L112.8 167.496L112.915 167.759L113.032 168.021L113.149 168.282L113.236 168.574L113.351 168.836L113.468 169.099L113.584 169.362H113.295ZM87.8427 166.649L87.6093 166.825L87.4065 166.971L87.1732 167.146L86.9414 167.292L86.7096 167.467L86.4763 167.613L86.2445 167.759L85.9818 167.904L85.7208 168.05L85.4597 168.196L85.1974 168.311L84.9363 168.457L84.6463 168.574L84.3856 168.691L84.0936 168.807L83.8329 168.924L83.5715 169.012L83.3091 169.099L83.0481 169.187L82.7581 169.274L82.4973 169.362L82.2053 169.42L81.9443 169.479L81.6543 169.537L81.3626 169.595L81.0723 169.624L80.753 169.654L80.4629 169.683L80.1436 169.712L79.8516 169.741L79.5327 169.77H79.2133H78.8937H78.5747H78.2827L77.9927 169.741L77.6734 169.712L77.3834 169.683L77.0933 169.654L76.8014 169.624L76.5113 169.566L76.221 169.508L75.9603 169.449L75.6686 169.391L75.4076 169.304L75.1176 169.245L74.8549 169.157L74.5938 169.041L74.3328 168.953L74.0431 168.836L73.7804 168.72L73.5193 168.603L73.2586 168.487L72.9956 168.341L72.7642 168.196L72.5031 168.05L72.2697 167.904L72.038 167.759L71.8046 167.583L71.5728 167.408L71.3408 167.233L71.1367 167.058L70.9342 166.883L70.7298 166.679L70.5273 166.504L70.3229 166.299L70.1204 166.095L69.9453 165.891L69.7718 165.658L69.5967 165.453L69.4509 165.22L69.2774 164.986L69.1319 164.753L68.9874 164.519L68.8415 164.257L68.6957 164.023L68.5808 163.761L68.464 163.498L68.3474 163.235L68.2322 162.973L68.1447 162.739L68.0278 162.476L67.9695 162.214L67.8836 161.951L67.8253 161.66L67.7378 161.397L67.6795 161.105L67.6502 160.842L67.5916 160.55L67.563 160.288L67.5334 159.996L67.506 159.704L67.4771 159.413V159.092V158.8V158.741V158.449L67.506 158.128V157.837L67.5334 157.545L67.563 157.224L67.6212 156.934L67.6502 156.642L67.7085 156.379L67.796 156.088L67.8546 155.796L67.9402 155.533L68.0278 155.241L68.1154 154.979L68.2322 154.687L68.3474 154.424L68.464 154.162L68.5808 153.899L68.6957 153.636L68.8415 153.373L68.9874 153.14L69.1319 152.906L69.2774 152.673L69.4235 152.44L69.5967 152.206L69.7718 151.973L69.9453 151.739L70.1204 151.535L70.3229 151.331L70.498 151.126L70.7008 150.922L70.9049 150.718L71.1074 150.543L71.3408 150.338L71.5435 150.163L71.7753 149.988L72.0087 149.842L72.2404 149.667L72.4742 149.521L72.7056 149.376L72.9666 149.23L73.2293 149.084L73.49 148.938L73.7511 148.821L74.0134 148.704L74.3038 148.558L74.5356 148.471L74.8256 148.383L75.0886 148.267L75.3493 148.208L75.61 148.121L75.9017 148.062L76.1627 147.975L76.4528 147.916L76.7431 147.887L77.0348 147.829L77.3251 147.8L77.6148 147.771L77.9051 147.741L78.1971 147.712H78.5164H78.8065H79.1254H79.4448L79.766 147.741L80.0854 147.771H80.3754L80.6654 147.8L80.9847 147.858L81.2474 147.887L81.5374 147.946L81.8278 148.004L82.0901 148.062L82.3508 148.121L82.6122 148.179L82.8749 148.267L83.1356 148.325L83.3674 148.412L83.6301 148.5L83.8911 148.617L84.1519 148.733L84.4145 148.85L84.6756 148.996L84.9363 149.113L85.17 149.259L85.4307 149.405L85.6625 149.55L85.9252 149.697L86.1569 149.871L86.3887 150.018L86.6221 150.193L86.8538 150.368L87.0872 150.572L87.319 150.747L87.1439 150.981L86.9414 151.185L86.7663 151.418L86.5638 151.652L86.3887 151.885L86.2152 152.089L86.0108 152.323L85.8376 152.556L85.6625 152.761L85.4597 152.994L85.2849 153.228L85.0821 153.461L84.907 153.665L84.7338 153.899L84.5298 154.132L84.3559 154.366L84.1519 154.57L83.9784 154.803L83.745 154.628L83.5132 154.424L83.2798 154.278L83.0481 154.103L82.8163 153.957L82.5829 153.811L82.3508 153.665L82.0901 153.519L81.8567 153.403L81.625 153.286L81.3916 153.198L81.1305 153.111L80.8698 153.023L80.6071 152.965L80.3171 152.906L80.0271 152.848L79.7367 152.819L79.4174 152.79L79.0965 152.761H78.7772H78.4871L78.1971 152.79L77.9344 152.819L77.6444 152.877L77.3834 152.936L77.1207 153.023L76.86 153.111L76.5989 153.228L76.3379 153.344L76.1045 153.49L75.873 153.636L75.6393 153.782L75.4369 153.957L75.2325 154.132L75.03 154.307L74.8549 154.511L74.6524 154.716L74.4773 154.949L74.3328 155.154L74.1869 155.387L74.0431 155.65L73.8969 155.883L73.7804 156.146L73.6928 156.408L73.5776 156.671L73.49 156.963L73.4318 157.253L73.3735 157.515L73.3149 157.837L73.2859 158.128L73.2586 158.42V158.741V158.8V159.092L73.2859 159.383L73.3149 159.646L73.3442 159.938L73.4025 160.2L73.4611 160.463L73.5193 160.726L73.6069 160.988L73.6928 161.222L73.8097 161.513L73.9262 161.776L74.0704 162.039L74.2162 162.272L74.3621 162.506L74.5356 162.739L74.7107 162.944L74.9131 163.148L75.0886 163.352L75.2907 163.527L75.5244 163.702L75.7562 163.877L75.9876 164.023L76.221 164.169L76.4824 164.286L76.7431 164.403L77.0055 164.519L77.2958 164.607L77.5858 164.694L77.8778 164.753L78.1678 164.811L78.4578 164.84L78.7772 164.87H79.0965H79.4448L79.766 164.84L80.0854 164.811L80.3754 164.782L80.6654 164.723L80.9574 164.665L81.2474 164.578L81.5081 164.519L81.7695 164.403L82.0029 164.286L82.2636 164.169L82.4677 164.053L82.6998 163.906V163.615V163.323V163.031V162.739V162.418V162.127V161.835V161.543V161.251H82.4094H82.1471H81.8567H81.5667H81.2767H81.014H80.7237H80.4336H80.1436H79.8813H79.5909H79.3009H79.0105H78.7482H78.4578V160.959V160.697V160.405V160.113V159.821V159.558V159.267V158.975V158.683V158.42V158.128V157.837V157.545V157.282V156.992H78.7482H79.0398H79.3302H79.6199H79.9102H80.2003H80.4922H80.7823H81.0723H81.3626H81.6543H81.9443H82.2343H82.5243H82.8163H83.1067H83.3967H83.6867H83.9784H84.2687H84.5587H84.8487H85.1404H85.4307H85.7208H86.0108H86.3028H86.5928H86.8831H87.1732H87.4648H87.7548H88.0452V157.282V157.574V157.866V158.128V158.42V158.712V159.004V159.296V159.588V159.85V160.142V160.434V160.726V161.018V161.309V161.601V161.864V162.156V162.448V162.739V163.031V163.323V163.615V163.877V164.169V164.461V164.753V165.045V165.336V165.599V165.891V166.183V166.475L87.8427 166.649Z" fill="#3C3935"/>
<path d="M78.5008 100.06H91.0922V90.3199H78.5008V70.4363H91.5935V60.6966H67.8083V130.989H91.7927V121.249H78.5008V100.06Z" fill="#3C3935"/>
<path d="M168.689 102.169V118.036C168.689 120.848 167.39 122.152 164.693 122.152H162.693C159.895 122.152 158.595 120.848 158.595 118.036V73.6497C158.595 70.838 159.895 69.5334 162.693 69.5334H164.492C167.19 69.5334 168.49 70.838 168.49 73.6497V87.4083H178.982V73.0472C178.982 64.3117 174.785 60.0938 166.092 60.0938H160.894C152.201 60.0938 147.903 64.4113 147.903 73.1484V118.537C147.903 127.274 152.201 131.592 160.894 131.592H166.191C174.886 131.592 179.182 127.274 179.182 118.537V102.169H168.689Z" fill="#3C3935"/>
<path d="M131.556 130.989H142.25V60.6964H131.556V130.989Z" fill="#3C3935"/>
<path d="M116.04 91.9264C116.04 94.7384 114.742 96.0446 112.044 96.0446H107.646V70.1361H112.044C114.742 70.1361 116.04 71.441 116.04 74.2524V91.9264ZM113.742 60.6966H96.9531V130.989H107.646V105.482H113.742C122.436 105.482 126.733 101.165 126.733 92.4296V73.7511C126.733 65.014 122.436 60.6966 113.742 60.6966" fill="#3C3935"/>
<path fill-rule="evenodd" clip-rule="evenodd" d="M93.0347 194.548H154.247L123.003 204.851L93.0347 194.548Z" fill="#3C3935"/>
</svg>
