<svg width="24" height="24" viewBox="0 0 24 24" fill="none" xmlns="http://www.w3.org/2000/svg">
<path d="M18.94 7.90321C15.904 6.49921 11.536 5.60721 7.42802 5.93921C7.63202 4.57921 8.14402 3.63121 8.97602 3.43121C10.124 3.15521 11.376 3.91121 12.568 5.28321C13.348 5.38321 14.276 5.56321 14.924 5.71121C12.748 1.61921 9.82802 -0.672789 7.60802 0.175211C5.92002 0.819211 5.05602 3.14321 5.16002 6.26721C2.96002 6.73521 1.24401 7.56721 0.144012 8.76321C0.0880121 8.82721 -0.0359881 8.99121 0.00801199 9.06721C0.044012 9.12721 0.152012 9.05921 0.204012 9.02721C1.47601 8.13521 3.10802 7.65521 5.23202 7.35121C5.53602 10.6832 6.94402 14.9112 9.28802 18.3032C8.00802 18.8072 6.93202 18.8392 6.34402 18.2152C5.53202 17.3592 5.56002 15.8952 6.15202 14.1752C5.84802 13.4472 5.54002 12.5552 5.34802 11.9232C2.88402 15.8552 2.35601 19.5312 4.20002 21.0312C5.60402 22.1712 8.04802 21.7592 10.7 20.1072C12.204 21.7792 13.784 22.8472 15.368 23.1992C15.452 23.2152 15.656 23.2432 15.7 23.1672C15.736 23.1072 15.62 23.0432 15.568 23.0192C14.16 22.3632 12.928 21.1912 11.604 19.5032C14.34 17.5752 17.296 14.2392 19.06 10.5152C20.136 11.3752 20.7 12.2872 20.456 13.1112C20.12 14.2432 18.84 14.9512 17.052 15.2952C16.572 15.9232 15.956 16.6352 15.504 17.1192C20.136 17.2792 23.584 15.8992 23.96 13.5552C24.248 11.7712 22.664 9.85921 19.908 8.38721C20.604 6.24721 20.74 4.34721 20.252 2.79921C20.224 2.71921 20.148 2.52721 20.056 2.52721C19.988 2.52721 19.988 2.65921 19.992 2.71521C20.136 4.25921 19.74 5.91521 18.94 7.90321ZM10.408 17.7712C8.44802 14.6272 7.32002 10.9232 7.32402 7.17921C11.028 7.05521 14.8 7.92721 18.04 9.80721C16.296 13.0752 13.656 15.9072 10.408 17.7712Z" fill="#3F8FF7"/>
</svg>
