<svg width="255" height="255" viewBox="0 0 255 255" fill="none" xmlns="http://www.w3.org/2000/svg">
<path d="M15 128C15 188.751 64.2487 238 125 238C185.751 238 235 188.751 235 128C235 67.2487 185.751 18 125 18C64.2487 18 15 67.2487 15 128Z" fill="black"/>
<path d="M113.231 112.62V106.786C111.254 106.508 109.261 106.363 107.265 106.353C95.5295 106.367 84.2788 111.035 75.9806 119.333C67.6824 127.632 63.0142 138.882 63 150.618C63.0025 157.734 64.7217 164.744 68.0117 171.054C71.3017 177.364 76.0654 182.787 81.8985 186.863C74.3007 178.672 70.106 167.896 70.1667 156.724C70.1561 145.202 74.6575 134.135 82.7066 125.891C90.7558 117.648 101.713 112.884 113.231 112.62V112.62Z" fill="#25F4EE"/>
<path d="M114.274 177.063C125.167 177.063 134.176 168.276 134.581 157.483L134.667 61.2386H152.117L152.092 61.0917C151.716 59.0829 151.525 57.0438 151.523 55H127.5L127.461 151.392C127.262 156.613 125.05 161.554 121.288 165.181C117.527 168.807 112.508 170.837 107.283 170.846C104.014 170.847 100.795 170.05 97.9052 168.524C101.564 173.605 107.53 177.063 114.274 177.063Z" fill="#25F4EE"/>
<path d="M184.991 94.1013V88.454C178.519 88.4602 172.187 86.5772 166.77 83.036C171.442 88.4038 177.788 92.5605 184.991 94.1013Z" fill="#25F4EE"/>
<path d="M166.77 83.036C161.454 76.9643 158.526 69.1685 158.528 61.0988H151.988C152.844 65.5637 154.595 69.809 157.136 73.5791C159.676 77.3493 162.953 80.5662 166.77 83.036V83.036Z" fill="#FE2C55"/>
<path d="M107.265 130.218C96.1172 130.218 86.9152 139.474 86.9152 150.618C86.9152 158.383 91.4517 165.127 97.8873 168.513C95.3996 165.085 94.06 160.959 94.0603 156.724C94.066 151.364 96.1974 146.226 99.9868 142.436C103.776 138.645 108.914 136.513 114.274 136.507C116.299 136.511 118.311 136.827 120.24 137.442V112.889C118.263 112.61 116.27 112.465 114.274 112.455C113.916 112.455 113.579 112.473 113.231 112.484H113.138L113.073 131.067C111.194 130.482 109.234 130.196 107.265 130.218Z" fill="#FE2C55"/>
<path d="M184.991 93.8147L184.876 93.7932V112.362C172.847 112.333 161.131 108.525 151.383 101.476V150.607C151.393 156.405 150.259 162.149 148.046 167.508C145.833 172.867 142.585 177.737 138.486 181.839C134.388 185.941 129.521 189.193 124.163 191.411C118.806 193.628 113.063 194.766 107.265 194.761C98.1984 194.814 89.3375 192.061 81.8985 186.877C86.032 191.334 91.0411 194.888 96.612 197.319C102.183 199.75 108.196 201.004 114.274 201.003C126.012 200.99 137.266 196.32 145.566 188.019C153.865 179.717 158.532 168.462 158.542 156.724V107.847C168.29 114.854 179.995 118.615 192 118.597V94.56C189.644 94.559 187.295 94.3092 184.991 93.8147V93.8147Z" fill="#FE2C55"/>
<path d="M151.53 150.618V101.745C161.279 108.751 172.985 112.512 184.991 112.495V93.8039C177.911 92.2761 171.518 88.4941 166.77 83.0253C162.967 80.5521 159.706 77.3326 157.184 73.5617C154.662 69.7909 152.933 65.5473 152.1 61.0881H134.491L134.452 157.48C134.254 162.701 132.042 167.643 128.28 171.27C124.519 174.897 119.499 176.926 114.274 176.934C111.07 176.93 107.913 176.165 105.064 174.7C102.214 173.235 99.7543 171.113 97.8874 168.509C94.6208 166.798 91.8843 164.226 89.9737 161.072C88.0632 157.918 87.0514 154.302 87.0478 150.614C87.0544 145.255 89.1867 140.116 92.9768 136.327C96.7669 132.538 101.905 130.406 107.265 130.401C109.29 130.406 111.301 130.72 113.231 131.332V112.48C89.3053 113.043 70.009 132.651 70.009 156.724C70.0037 167.915 74.2541 178.689 81.8985 186.863C89.324 192.09 98.1843 194.892 107.265 194.886C119.001 194.873 130.253 190.205 138.552 181.905C146.85 173.606 151.518 162.354 151.53 150.618V150.618Z" fill="white"/>
</svg>
