<svg width="255" height="255" viewBox="0 0 255 255" fill="none" xmlns="http://www.w3.org/2000/svg">
<path d="M66.9481 108.334C55.5217 108.334 46 113.239 46 128.043C46 139.769 52.4027 147.154 67.2426 147.154C84.7104 147.154 85.8299 135.508 85.8299 135.508H77.3663C77.3663 135.508 75.5518 141.779 66.7266 141.779C59.5387 141.779 54.3691 136.864 54.3691 129.977H86.7156V125.654C86.7156 118.839 82.4414 108.334 66.9481 108.334ZM66.6526 113.858C73.4946 113.858 78.159 118.101 78.159 124.459H54.556C54.556 117.709 60.6449 113.858 66.6526 113.858Z" fill="white"/>
<path d="M86.7093 94V139.72C86.7093 142.315 86.5261 145.96 86.5261 145.96H94.5985C94.5985 145.96 94.8887 143.342 94.8887 140.951C94.8887 140.951 98.8771 147.266 109.722 147.266C121.142 147.266 128.9 139.24 128.9 127.744C128.9 117.048 121.775 108.446 109.741 108.446C98.4719 108.446 94.9703 114.604 94.9703 114.604V94H86.7093ZM107.657 114.101C115.412 114.101 120.344 119.927 120.344 127.744C120.344 136.127 114.648 141.611 107.713 141.611C99.4353 141.611 94.9703 135.07 94.9703 127.819C94.9703 121.062 98.9766 114.101 107.657 114.101Z" fill="white"/>
<path d="M148.963 108.334C131.774 108.334 130.671 117.86 130.671 119.382H139.227C139.227 119.382 139.676 113.821 148.373 113.821C154.025 113.821 158.404 116.44 158.404 121.473V123.264H148.373C135.056 123.264 128.016 127.208 128.016 135.21C128.016 143.084 134.521 147.369 143.312 147.369C155.293 147.369 159.152 140.669 159.152 140.669C159.152 143.334 159.354 145.96 159.354 145.96H166.96C166.96 145.96 166.666 142.705 166.666 140.622V122.621C166.666 110.818 157.26 108.334 148.963 108.334ZM158.404 128.64V131.029C158.404 134.144 156.505 141.891 145.321 141.891C139.197 141.891 136.572 138.797 136.572 135.21C136.572 128.682 145.414 128.64 158.404 128.64Z" fill="white"/>
<path d="M162.058 109.828H171.684L185.498 137.84L199.28 109.828H208L182.896 159.698H173.749L180.993 145.796L162.058 109.828Z" fill="white"/>
</svg>
