<svg width="24" height="24" viewBox="0 0 24 24" fill="none" xmlns="http://www.w3.org/2000/svg">
<path d="M11.9703 18.0298C8.65863 18.0298 7.12774 16.3427 7.12774 15.093C7.12774 14.8118 7.25271 14.4994 7.47141 14.312C7.69011 14.1245 7.97129 13.9995 8.28372 14.0308C9.72088 14.0308 9.34597 16.1553 12.0016 16.1553C13.345 16.1553 14.1573 15.343 14.1573 14.5619C14.1573 14.0933 13.9074 13.5621 13.0014 13.3747L10.0333 12.6249C7.65887 12.0312 7.25271 10.6878 7.25271 9.46935C7.25271 6.90745 9.59591 6.00142 11.8141 6.00142C13.8449 6.00142 16.2818 7.12615 16.2818 8.65704C16.2818 9.31313 15.7195 9.6568 15.0946 9.6568C13.8761 9.6568 14.0948 7.93846 11.6267 7.93846C10.4082 7.93846 9.78337 8.50083 9.78337 9.31314C9.78337 10.1254 10.7206 10.3754 11.5642 10.5628L13.7512 11.0627C16.1569 11.5938 16.7817 12.9998 16.7817 14.3432C16.7192 16.4052 15.1259 18.0298 11.9703 18.0298ZM21.1244 13.6246C21.2182 13.0935 21.2807 12.5311 21.2807 11.9688C21.2807 9.18816 20.0622 6.56378 17.9689 4.78295C15.8757 3.00212 13.0326 2.2523 10.3145 2.72094C9.47094 2.2523 8.53366 1.97112 7.56514 2.00236C5.56561 2.00236 3.75354 3.06461 2.75377 4.8142C1.75401 6.56378 1.75401 8.65704 2.72253 10.3754C2.16016 13.3747 3.12869 16.4677 5.28443 18.6547C7.44017 20.8417 10.5332 21.8102 13.5637 21.2791C14.4073 21.7477 15.3446 22.0289 16.3131 21.9976C18.3126 21.9976 20.1247 20.9354 21.1244 19.1858C22.1242 17.4675 22.1242 15.3742 21.1244 13.6246Z" fill="white"/>
</svg>
