<svg viewBox="0 0 628.24 166.88" xmlns="http://www.w3.org/2000/svg"><path d="m62.42 64.29a9.63 9.63 0 0 1 -.08-4.09c.53-2.49 2.22-5.25 7.13-5.25 4.53.05 7.24 2.83 7.24 7.05v4.82h19.42v-5.45c0-16.94-15.27-19.64-26.28-19.64-13.85 0-25.14 4.59-27.21 17.27a27 27 0 0 0 .16 10.49c3.37 15.93 31.05 20.53 35.07 30.61a10 10 0 0 1 .16 5.75c-.64 2.61-2.4 5.26-7.61 5.26-4.86 0-7.77-2.84-7.77-7.09v-7.5h-20.93v6c0 17.41 13.68 22.65 28.31 22.65 14.07 0 25.63-4.8 27.51-17.83a38.54 38.54 0 0 0 -.08-12.75c-3.29-16.35-32.82-21.19-35.04-30.3zm253.27.19a10.55 10.55 0 0 1 -.06-4c.55-2.49 2.23-5.21 7.06-5.21 4.49 0 7.13 2.8 7.13 7v4.73h19.18v-5.41c0-16.78-15-19.42-25.94-19.42-13.71 0-24.92 4.52-27 17.15a26 26 0 0 0 .18 10.38c3.4 15.74 30.81 20.3 34.76 30.3a10.44 10.44 0 0 1 .15 5.71c-.6 2.59-2.34 5.2-7.51 5.2-4.85 0-7.76-2.79-7.76-7v-7.5h-20.65v5.94c0 17.21 13.48 22.41 28 22.41 13.91 0 25.4-4.76 27.24-17.64a38.11 38.11 0 0 0 -.13-12.63c-3.22-16.14-32.44-21-34.65-30.01zm176.84 42.43-18.34-62.7h-28.9v77.07h19.12l-1.11-64.71 19.7 64.71h27.71v-77.07h-19.24zm-367.43-62.7-14.43 77.88h21l10.91-72.09 10.61 72.1h20.89l-14.37-77.89zm117.63 0-9.83 60.88-9.82-60.88h-31.77l-1.68 77.88h19.46l.53-72.1 13.38 72.1h19.75l13.41-72.09.53 72.1h19.52l-1.75-77.88zm181 0h-19.73v57.61a14 14 0 0 1 -.17 3c-.41 1.94-2.05 5.66-7.49 5.66s-7-3.72-7.42-5.66a12.69 12.69 0 0 1 -.2-3v-57.61h-19.72v55.79c0 1.43.09 4.37.17 5.14 1.36 14.55 12.83 19.27 27.14 19.27s25.81-4.72 27.19-19.27a41.3 41.3 0 0 0 .17-5.14zm135.2 34.17v11.35h8v11.27a14.74 14.74 0 0 1 -.21 3c-.31 2.11-2.31 5.68-8 5.68s-7.59-3.57-7.93-5.68a19.63 19.63 0 0 1 -.21-3v-35.59a15.74 15.74 0 0 1 .36-3.68c.38-1.9 2.07-5.64 7.74-5.64 6 0 7.44 3.95 7.78 5.64a19.88 19.88 0 0 1 .24 3v4.32h19.62v-2.55a48.8 48.8 0 0 0 -.15-5.15c-1.48-14.61-13.51-19.23-27.32-19.23s-25.62 4.66-27.33 19.23c-.16 1.33-.4 3.72-.4 5.15v32.74a45.51 45.51 0 0 0 .31 5.14c1.28 14.2 13.6 19.24 27.37 19.24s26.08-5 27.38-19.24c.24-2.61.26-3.71.29-5.14v-20.86z" fill="#fff"/></svg>